<?xml version="1.0" standalone="no"?>
<!DOCTYPE svg PUBLIC "-//W3C//DTD SVG 20010904//EN"
 "http://www.w3.org/TR/2001/REC-SVG-20010904/DTD/svg10.dtd">
<svg version="1.0" xmlns="http://www.w3.org/2000/svg"
 width="24.000000pt" height="24.000000pt" viewBox="0 0 24.000000 24.000000"
 preserveAspectRatio="xMidYMid meet">

<g transform="translate(0.000000,24.000000) scale(0.100000,-0.100000)"
fill="#000000" stroke="none">
<path d="M46 197 c3 -10 9 -15 12 -12 3 3 0 11 -7 18 -10 9 -11 8 -5 -6z"/>
<path d="M88 176 c-13 -18 -13 -23 -3 -23 8 0 11 5 8 10 -4 6 1 8 11 4 10 -4
15 -3 11 3 -9 15 8 12 33 -6 37 -25 24 -84 -19 -84 -9 0 -28 14 -43 32 l-26
32 0 -25 c0 -14 3 -29 7 -33 5 -4 8 -13 8 -19 0 -7 9 -11 19 -9 11 2 15 -1 11
-7 -4 -7 5 -11 22 -11 23 0 25 2 13 11 -12 9 -11 10 6 6 11 -2 21 1 22 7 7 49
20 97 22 81 1 -12 4 -15 7 -7 7 19 -26 52 -45 45 -10 -4 -13 -2 -8 5 14 23
-39 12 -56 -12z"/>
<path d="M10 163 c0 -6 8 -17 18 -24 16 -13 16 -13 2 6 -8 11 -16 22 -17 24
-2 2 -3 0 -3 -6z"/>
<path d="M127 119 c4 -13 9 -17 15 -11 11 11 3 32 -12 32 -4 0 -6 -9 -3 -21z"/>
<path d="M25 61 c-3 -5 -2 -12 3 -15 5 -3 9 1 9 9 0 17 -3 19 -12 6z"/>
</g>
</svg>
